HIERARCHY
ROOT pelvis
{
	OFFSET 0.000000 0.000000 0.000000
	CHANNELS 6 Xposition Yposition Zposition Zrotation Yrotation Xrotation
	JOINT left_hip
	{
		OFFSET 0.055779 -0.080629 -0.017705
		CHANNELS 3 Zrotation Yrotation Xrotation
		JOINT left_knee
		{
			OFFSET 0.039469 -0.359247 0.009008
			CHANNELS 3 Zrotation Yrotation Xrotation
			JOINT left_ankle
			{
				OFFSET -0.013809 -0.389899 -0.036404
				CHANNELS 3 Zrotation Yrotation Xrotation
				JOINT left_foot
				{
					OFFSET 0.037897 -0.056346 0.116500
					CHANNELS 3 Zrotation Yrotation Xrotation
					End Site
					{
						OFFSET 0.000000 0.000000 0.000000
					}
				}
			}
		}
	}
	JOINT right_hip
	{
		OFFSET -0.057787 -0.088871 -0.013401
		CHANNELS 3 Zrotation Yrotation Xrotation
		JOINT right_knee
		{
			OFFSET -0.039496 -0.356943 -0.002206
			CHANNELS 3 Zrotation Yrotation Xrotation
			JOINT right_ankle
			{
				OFFSET 0.017959 -0.383749 -0.033094
				CHANNELS 3 Zrotation Yrotation Xrotation
				JOINT right_foot
				{
					OFFSET -0.031235 -0.058281 0.124713
					CHANNELS 3 Zrotation Yrotation Xrotation
					End Site
					{
						OFFSET 0.000000 0.000000 0.000000
					}
				}
			}
		}
	}
	JOINT spine1
	{
		OFFSET 0.004196 0.122659 -0.034271
		CHANNELS 3 Zrotation Yrotation Xrotation
		JOINT spine2
		{
			OFFSET 0.005122 0.143143 0.029537
			CHANNELS 3 Zrotation Yrotation Xrotation
			JOINT spine3
			{
				OFFSET -0.001923 0.057757 0.004628
				CHANNELS 3 Zrotation Yrotation Xrotation
				JOINT neck
				{
					OFFSET -0.013781 0.203940 -0.035143
					CHANNELS 3 Zrotation Yrotation Xrotation
					JOINT head
					{
						OFFSET 0.009065 0.086539 0.049216
						CHANNELS 3 Zrotation Yrotation Xrotation
						End Site
						{
							OFFSET 0.000000 0.000000 0.000000
						}
					}
				}
				JOINT left_collar
				{
					OFFSET 0.070315 0.109742 -0.020357
					CHANNELS 3 Zrotation Yrotation Xrotation
					JOINT left_shoulder
					{
						OFFSET 0.122280 0.043464 -0.020451
						CHANNELS 3 Zrotation Yrotation Xrotation
						JOINT left_elbow
						{
							OFFSET 0.245347 -0.013316 -0.020298
							CHANNELS 3 Zrotation Yrotation Xrotation
							JOINT left_wrist
							{
								OFFSET 0.251466 0.010925 -0.008411
								CHANNELS 3 Zrotation Yrotation Xrotation
								End Site
								{
									OFFSET 0.000000 0.000000 0.000000
								}
							}
						}
					}
				}
				JOINT right_collar
				{
					OFFSET -0.083386 0.108780 -0.024575
					CHANNELS 3 Zrotation Yrotation Xrotation
					JOINT right_shoulder
					{
						OFFSET -0.112806 0.044731 -0.008805
						CHANNELS 3 Zrotation Yrotation Xrotation
						JOINT right_elbow
						{
							OFFSET -0.248827 -0.010357 -0.028458
							CHANNELS 3 Zrotation Yrotation Xrotation
							JOINT right_wrist
							{
								OFFSET -0.255561 0.006434 -0.006231
								CHANNELS 3 Zrotation Yrotation Xrotation
								End Site
								{
									OFFSET 0.000000 0.000000 0.000000
								}
							}
						}
					}
				}
			}
		}
	}
}
MOTION
Frames: 11
Frame Time: 0.033333
-0.115577 0.594692 1.473645 -0.213300 -50.490400 -2.343700 15.262477 26.896540 -50.453122 0.557491 0.055005 44.970426 -0.044206 8.180228 27.532879 0.000000 0.000000 0.000000 -3.520510 -19.927517 -37.166028 1.358844 1.036859 77.940434 -0.486780 -18.684021 -28.778240 0.000000 0.000000 0.000000 -3.605016 16.558939 14.854647 0.000000 0.000000 0.000000 -4.687398 4.036701 -11.784553 -0.235395 7.955299 9.731803 0.260368 16.080148 -16.735688 0.000000 0.000000 0.000000 -63.644775 -38.141076 19.295158 114.904203 -47.634601 -88.045303 -0.131754 -1.450498 10.379763 0.000000 0.000000 0.000000 75.937007 21.633611 88.644532 -120.087759 45.541159 -92.314314 1.850778 -5.127200 -39.675203
-0.115521 0.579433 1.515381 1.375400 -54.788700 -4.567200 15.295459 30.737923 -48.285723 0.366380 -0.228899 49.321932 -0.406753 2.381290 20.951844 0.000000 0.000000 0.000000 -8.187421 -19.054426 -36.422423 1.789242 1.032179 81.024069 -0.471041 -18.806692 -29.811658 0.000000 0.000000 0.000000 -2.492673 17.885816 14.904279 0.000000 0.000000 0.000000 -5.842144 4.270945 -11.328774 0.128907 9.003103 10.249717 -0.994707 17.973431 -16.896760 0.000000 0.000000 0.000000 -67.360403 -33.168499 10.412014 103.300175 -50.919556 -78.232125 -0.039431 -0.795882 5.672619 0.000000 0.000000 0.000000 71.484126 11.729744 79.308732 -123.108995 44.107414 -94.757560 7.946497 -7.999814 -89.615264
-0.115832 0.563554 1.546252 1.228400 -55.490400 -5.177600 14.352881 32.385791 -50.089438 0.352822 -0.371536 54.829109 -0.358473 1.203334 14.515672 0.000000 0.000000 0.000000 -10.130124 -20.070151 -36.167605 2.340943 0.982724 84.118247 -0.660941 -22.027521 -30.616224 0.000000 0.000000 0.000000 -2.339325 16.256369 15.760501 0.000000 0.000000 0.000000 -5.231825 3.819743 -11.728222 0.295901 9.306299 10.811379 -0.529242 18.687727 -18.602561 0.000000 0.000000 0.000000 -64.870937 -30.020437 8.663902 96.897708 -52.042899 -72.717637 -0.375263 -2.428624 17.564790 0.000000 0.000000 0.000000 69.975062 10.007008 81.563583 -121.412911 44.932965 -93.390510 6.829269 -7.914415 -81.558126
-0.115425 0.552868 1.567772 -0.971600 -55.539900 -3.224800 14.828600 33.094854 -52.870077 0.300363 -0.502605 59.795987 -0.355883 0.365935 11.089229 0.000000 0.000000 0.000000 -10.057890 -21.879052 -36.411028 2.735518 0.925182 85.906885 -0.869539 -24.905947 -30.571702 0.000000 0.000000 0.000000 -1.790929 15.188336 16.248324 0.000000 0.000000 0.000000 -4.311311 3.613002 -12.182384 0.056599 8.764799 11.788201 0.694678 17.928974 -21.474976 0.000000 0.000000 0.000000 -61.404142 -30.217785 10.047988 93.504313 -52.465307 -69.776684 -0.607123 -3.065551 22.399589 0.000000 0.000000 0.000000 69.377152 10.272250 84.084330 -122.651869 44.335197 -94.390266 6.297765 -7.817932 -77.676222
-0.113780 0.546192 1.585190 -1.909000 -56.064900 -1.554900 13.882772 35.065755 -55.757730 0.264025 -0.588255 63.420935 -0.361486 -0.343680 8.717048 0.000000 0.000000 0.000000 -11.084728 -23.737919 -36.905456 2.833793 0.904178 86.552975 -0.782707 -24.682080 -30.036168 0.000000 0.000000 0.000000 -1.560001 16.110898 15.888917 0.000000 0.000000 0.000000 -3.963941 3.931283 -12.205661 -0.149609 8.514797 12.377960 1.137667 17.540928 -22.043310 0.000000 0.000000 0.000000 -60.616179 -32.822025 9.658547 89.546689 -52.815649 -66.335890 -0.723603 -3.333750 24.486251 0.000000 0.000000 0.000000 68.957311 9.607058 83.048361 -124.027524 43.637289 -95.492730 6.652380 -7.886392 -80.271205
-0.112412 0.543920 1.598163 -3.368300 -56.452800 0.752200 12.738038 37.545340 -58.404581 0.265244 -0.630018 65.609138 -0.384460 -1.499332 7.059549 0.000000 0.000000 0.000000 -11.817596 -25.475314 -36.874230 2.753995 0.922417 85.963688 -0.562445 -23.023148 -29.384600 0.000000 0.000000 0.000000 -0.894165 16.974789 15.297363 0.000000 0.000000 0.000000 -3.871609 4.224385 -12.180397 0.098908 8.695697 12.398343 0.977186 17.834438 -21.499061 0.000000 0.000000 0.000000 -61.935119 -34.890418 7.709578 89.253408 -52.835737 -66.080460 -0.616180 -3.087396 22.568359 0.000000 0.000000 0.000000 68.524320 8.845789 81.701609 -123.652127 43.831398 -95.192757 6.804291 -7.910739 -81.376182
-0.112469 0.543911 1.606596 -6.404200 -56.229200 4.242600 12.608870 39.283877 -60.806151 0.279963 -0.653452 67.039494 -0.399497 -2.606539 5.925272 0.000000 0.000000 0.000000 -11.035400 -27.074996 -36.549735 2.645092 0.958722 84.830818 -0.380972 -21.522698 -28.929931 0.000000 0.000000 0.000000 0.573413 16.965298 14.848557 0.000000 0.000000 0.000000 -3.584679 4.314149 -12.209526 0.388195 8.791999 12.586679 0.797288 18.001167 -22.065720 0.000000 0.000000 0.000000 -63.600253 -36.102237 5.765938 91.447978 -52.666021 -67.990154 -0.532825 -2.878934 20.966808 0.000000 0.000000 0.000000 68.070401 7.781150 81.248890 -123.269637 44.026379 -94.886381 6.882709 -7.922070 -81.946162
-0.112825 0.545278 1.612555 -8.586200 -55.441700 6.563300 12.614601 39.701389 -62.276685 0.299873 -0.661207 67.720210 -0.387905 -3.092978 5.213255 0.000000 0.000000 0.000000 -10.359389 -28.602654 -35.879164 2.558747 0.989880 83.745541 -0.277679 -20.575238 -28.735754 0.000000 0.000000 0.000000 1.384337 16.448596 14.761390 0.000000 0.000000 0.000000 -3.187429 4.241402 -12.252976 0.663003 8.683300 12.910492 0.898906 17.817783 -22.835233 0.000000 0.000000 0.000000 -64.314741 -37.107236 4.877624 92.685462 -52.550106 -69.065486 -0.552904 -2.930736 21.363009 0.000000 0.000000 0.000000 68.019745 6.756358 81.380539 -123.195067 44.064073 -94.826570 6.867403 -7.919954 -81.834680
-0.113026 0.546804 1.617418 -9.465300 -54.775400 7.649400 12.356573 39.697536 -63.108492 0.314146 -0.663848 68.040636 -0.379451 -3.322357 4.699697 0.000000 0.000000 0.000000 -10.129166 -29.209419 -35.340013 2.526494 1.011777 82.924207 -0.250431 -20.440675 -28.564329 0.000000 0.000000 0.000000 1.274331 15.967891 14.488529 0.000000 0.000000 0.000000 -2.810033 4.144783 -12.207718 0.882393 8.538205 13.136350 1.234141 17.581491 -22.936535 0.000000 0.000000 0.000000 -64.093861 -38.030220 4.967556 92.071533 -52.609488 -68.532094 -0.577559 -2.992915 21.840118 0.000000 0.000000 0.000000 68.226067 6.363051 81.314081 -122.961586 44.181272 -94.639262 6.997753 -7.937362 -82.780274
-0.113830 0.547938 1.622219 -9.805500 -54.609700 8.101500 12.052986 40.094368 -63.491822 0.326143 -0.667725 68.387319 -0.368938 -3.508505 4.200176 0.000000 0.000000 0.000000 -10.262637 -29.050426 -34.800661 2.520093 1.028515 82.294529 -0.239919 -20.551550 -28.424910 0.000000 0.000000 0.000000 1.007102 15.729133 14.165378 0.000000 0.000000 0.000000 -2.645500 4.086112 -12.166598 0.970105 8.443596 13.332534 1.561859 17.447523 -22.871845 0.000000 0.000000 0.000000 -63.681634 -38.617173 5.257063 90.660174 -52.732321 -67.304843 -0.610090 -3.072725 22.455041 0.000000 0.000000 0.000000 68.307399 6.156524 81.070074 -122.880917 44.221573 -94.574444 7.061692 -7.945156 -83.242717
-0.114715 0.548032 1.626832 -10.367500 -54.629600 8.609500 12.015150 40.690868 -63.779699 0.335674 -0.675338 68.879201 -0.349580 -3.592916 3.665094 0.000000 0.000000 0.000000 -10.389747 -28.922112 -34.232772 2.520332 1.041777 81.804298 -0.220586 -20.573015 -28.297830 0.000000 0.000000 0.000000 1.310900 15.604043 13.853504 0.000000 0.000000 0.000000 -2.745073 4.048501 -12.152787 1.015504 8.405505 13.612995 1.507181 17.371092 -23.068214 0.000000 0.000000 0.000000 -63.681657 -38.795475 5.494818 89.909783 -52.788941 -66.651901 -0.618092 -3.091988 22.603822 0.000000 0.000000 0.000000 68.046003 5.760901 80.770431 -123.260534 44.030948 -94.879145 6.972486 -7.934184 -82.596908
